<?xml version="1.0" standalone="no"?><!DOCTYPE svg PUBLIC "-//W3C//DTD SVG 1.1//EN" "http://www.w3.org/Graphics/SVG/1.1/DTD/svg11.dtd"><svg t="1692071991597" class="icon" viewBox="0 0 1024 1024" version="1.1" xmlns="http://www.w3.org/2000/svg" p-id="3950" id="mx_n_1692071991599" xmlns:xlink="http://www.w3.org/1999/xlink" width="48" height="48"><path d="M528.184012 516.226628m-428.081564 0a428.081564 428.081564 0 1 0 856.163127 0 428.081564 428.081564 0 1 0-856.163127 0Z" fill="#E3DEFF" p-id="3951"></path><path d="M344.668877 303.919848l82.617936 0 0 426.781062-82.617936 0 0-426.781062Z" fill="#FFFFFF" p-id="3952"></path><path d="M385.959783 745.150921a55.813166 55.813166 0 0 1-55.740916-55.740916V345.246878a55.740916 55.740916 0 1 1 111.481832 0v344.163127a55.813166 55.813166 0 0 1-55.740916 55.740916z m0-426.781063a26.87702 26.87702 0 0 0-26.840895 26.87702v344.163127a26.840895 26.840895 0 1 0 53.681789 0V345.246878a26.87702 26.87702 0 0 0-26.840894-26.87702z" fill="#404951" p-id="3953"></path><path d="M521.645382 155.771114a90.312566 90.312566 0 0 1 90.312566 90.312566v495.779863h-180.769632V246.264305a90.312566 90.312566 0 0 1 90.457066-90.493191z" fill="#CBB8FF" p-id="3954"></path><path d="M626.588584 756.313554h-209.850279V246.264305a104.762577 104.762577 0 1 1 209.850279 0z m-180.950258-28.900021h152.050237V246.264305a75.862556 75.862556 0 1 0-152.050237 0z" fill="#404951" p-id="3955"></path><path d="M377.181401 726.113032l-31.573273 36.450152a19.941015 19.941015 0 0 0-4.876878 13.077259v36.739152a19.941015 19.941015 0 0 0 19.941014 19.941015h82.039935a19.941015 19.941015 0 0 0 19.941015-19.941015v-33.813025a19.83264 19.83264 0 0 0-3.865378-11.776758L429.020814 726.113032z" fill="#FFFFFF" p-id="3956"></path><path d="M442.712199 846.77062H360.672264a34.42715 34.42715 0 0 1-34.391025-34.391025v-36.739152a34.42715 34.42715 0 0 1 8.381006-22.542016l35.908276-41.435406h65.783674l34.102025 46.601284a33.99365 33.99365 0 0 1 6.647004 20.302265v33.813025a34.42715 34.42715 0 0 1-34.391025 34.391025zM383.756156 740.563042l-27.23827 31.464898a5.454879 5.454879 0 0 0-1.336626 3.612503v36.739152a5.491004 5.491004 0 0 0 5.491004 5.491004h82.039935a5.491004 5.491004 0 0 0 5.491004-5.491004v-33.813025a5.635504 5.635504 0 0 0-1.047625-3.251252l-25.287519-34.752276z" fill="#404951" p-id="3957"></path><path d="M640.713469 726.113032l-31.573273 36.450152a19.941015 19.941015 0 0 0-4.876878 13.077259v36.739152a19.941015 19.941015 0 0 0 19.941014 19.941015h82.039935a19.941015 19.941015 0 0 0 19.941015-19.941015v-33.813025a20.013265 20.013265 0 0 0-3.829253-11.776758L692.552882 726.113032z" fill="#FFFFFF" p-id="3958"></path><path d="M706.244267 846.77062h-82.039935a34.42715 34.42715 0 0 1-34.391025-34.391025v-36.739152a34.42715 34.42715 0 0 1 8.381006-22.542016l35.908276-41.435406h65.783674l34.102025 46.601284a33.99365 33.99365 0 0 1 6.647004 20.302265v33.813025a34.42715 34.42715 0 0 1-34.391025 34.391025zM647.288224 740.563042l-27.23827 31.464898a5.454879 5.454879 0 0 0-1.336626 3.612503v36.739152a5.491004 5.491004 0 0 0 5.491004 5.491004h82.039935a5.491004 5.491004 0 0 0 5.491004-5.491004v-33.813025a5.635504 5.635504 0 0 0-1.047625-3.251252l-25.287519-34.752276z" fill="#404951" p-id="3959"></path><path d="M465.218091 476.344599s-61.08742 112.384957-112.421083 137.2751-83.087561 72.250053-83.08756 112.384958h106.857828s62.676921-2.781627 84.388062 5.093628a4.371128 4.371128 0 0 0 5.816129-4.154378v-18.423763z" fill="#FFFFFF" p-id="3960"></path><path d="M462.400339 745.909546a19.326889 19.326889 0 0 1-6.358005-1.119875c-13.835885-5.021379-55.704791-5.274254-78.824808-4.226629H255.078812v-14.45001c0-47.64891 37.606153-99.199323 91.396317-125.389967 38.726028-18.821139 89.662316-101.150074 106.026952-131.278346l26.80477-49.382911 1.734001 307.062725a18.857264 18.857264 0 0 1-18.821138 18.857263z m-61.051295-34.752275a340.406124 340.406124 0 0 1 50.972412 3.142877v-5.671629l-1.083751-180.950258c-23.481267 35.908276-58.883793 83.087561-91.938192 99.018698C321.25986 645.120723 292.612714 679.150497 285.568334 711.663021h90.312566c3.179002 0 12.968884-0.50575 25.287519-0.50575z" fill="#404951" p-id="3961"></path><path d="M612.210823 302.872222l82.617936 0 0 406.117547-82.617936 0 0-406.117547Z" fill="#FFFFFF" p-id="3962"></path><path d="M653.537854 723.43978a55.849291 55.849291 0 0 1-55.777041-55.777041V344.163127a55.777041 55.777041 0 0 1 111.517956 0v323.499612a55.813166 55.813166 0 0 1-55.740915 55.777041z m0-406.117548a26.87702 26.87702 0 0 0-26.87702 26.840895v323.499612a26.87702 26.87702 0 1 0 53.717914 0V344.163127a26.840895 26.840895 0 0 0-26.840894-26.840895z" fill="#404951" p-id="3963"></path><path d="M582.046426 480.462852s61.051295 112.384957 112.421083 137.2751 83.087561 72.250053 83.08756 112.384958h-106.677203s-62.713046-2.781627-84.388061 5.057503a4.335003 4.335003 0 0 1-5.81613-4.118253v-18.423763z" fill="#FFFFFF" p-id="3964"></path><path d="M585.008678 749.847174a18.857264 18.857264 0 0 1-18.785013-18.857264v-18.423763l1.697876-288.530586 26.840895 49.202286c16.364637 30.128272 67.373174 112.457207 106.026952 131.278346 53.790164 26.190644 91.360192 77.741057 91.360192 125.389967v14.45001h-121.921964c-23.156142-1.011501-65.025048-0.794751-78.824808 4.226628a19.543639 19.543639 0 0 1-6.39413 1.264376z m11.198759-218.231285l-1.083751 186.621887c27.129895-4.515628 69.251676-2.926127 75.862555-2.637127h90.529317c-6.863755-32.512524-35.691526-66.542299-73.550554-84.966062-32.909899-16.075637-68.2763-63.110421-91.902067-99.018698z" fill="#404951" p-id="3965"></path><path d="M580.673675 674.996119h-118.020461V349.112256a103.606576 103.606576 0 0 1 18.315388-58.378043l25.287519-37.136527a17.123263 17.123263 0 0 1 28.03302-0.397376l26.37127 36.594652a104.076201 104.076201 0 0 1 20.085514 60.94292z" fill="#FFFFFF" p-id="3966"></path><path d="M595.123686 689.44613h-146.920483V349.112256a118.056586 118.056586 0 0 1 20.808016-66.506174l25.287518-37.136527a31.573273 31.573273 0 0 1 25.648769-13.79976h0.252875a31.645523 31.645523 0 0 1 25.612644 13.113384l26.335144 36.594652a118.201087 118.201087 0 0 1 22.831017 69.360051z m-118.020462-28.900021h89.120441V350.737882a89.373315 89.373315 0 0 0-17.376138-52.489664l-26.335144-36.594651a2.709377 2.709377 0 0 0-4.371129 0l-25.287518 37.136527a89.301065 89.301065 0 0 0-15.822762 50.249912z" fill="#404951" p-id="3967"></path><path d="M519.550131 260.353066s41.54378 34.318775 45.156283 82.184435 2.709377 322.415861 2.709377 322.415861l-61.412545-4.804628s48.15466-104.762577 13.546885-399.795668z" fill="#E3DEFF" p-id="3968"></path><path d="M521.428632 384.659282a94.93657 94.93657 0 0 1-65.639173-26.73252l15.425386-15.208636c1.842376 1.878501 46.312284 45.156283 104.184576-0.867001l13.51076 16.978763c-23.914768 19.001764-47.034784 25.829394-67.481549 25.829394zM507.195371 442.928949h28.900022v153.386863h-28.900022z" fill="#404951" p-id="3969"></path><path d="M649.275101 318.911734v156.421364a16.798137 16.798137 0 0 1-21.675016 16.147887v32.512524s35.547026 53.103789 51.297537 63.254921v-238.425175s2.023001-33.018274-29.622521-29.911521zM384.984407 318.153108v113.107458a97.971072 97.971072 0 0 1-25.287519 65.711423v98.440697s53.573414-56.896917 54.18754-62.315671V351.352007s0.21675-33.198899-28.900021-33.198899zM618.604953 772.425316v44.542157h92.407818v-40.929655l-22.578142-33.126649-43.350032 0.614126s27.09377 14.739011 27.09377 37.028152-23.481267 24.095393-27.707895 24.095392-25.865519 0-25.865519-32.223523zM355.18126 771.16094v46.709659h92.407818v-42.916531l-22.578142-34.752276-43.350031 0.650251s27.09377 15.461511 27.093769 38.834403-23.481267 25.287519-27.67177 25.287519-25.901644-0.036125-25.901644-33.813025zM285.640584 710.723771h117.406336s43.639032 0.903126 48.15466 5.418754V530.676639s-5.418754 106.568828-63.218796 137.2751a548.522402 548.522402 0 0 1-102.3422 42.772032zM595.123686 717.948776s48.768786-1.806251 73.442179-1.806251h93.925068s-22.289141-69.251676-81.281309-89.734566z" fill="#E3DEFF" p-id="3970"></path></svg>